<svg width="17" height="17" viewBox="0 0 17 17" fill="none" xmlns="http://www.w3.org/2000/svg">
<g clip-path="url(#clip0_244_1976)">
<path d="M15.6048 7.02207C15.6045 7.0217 15.6041 7.02133 15.6037 7.02096L9.10342 0.46816C8.82635 0.188718 8.4571 0.0339049 8.06367 0.0323155C7.67024 0.0307261 7.29975 0.182429 7.02031 0.459623L0.470697 6.95641C0.46849 6.9586 0.466284 6.96091 0.464078 6.9631C-0.109528 7.53537 -0.112317 8.46762 0.458483 9.04305C0.719263 9.30607 1.06447 9.4592 1.43416 9.47656C1.44916 9.47808 1.4643 9.47888 1.47956 9.47894L1.73969 9.47999L1.72028 14.2831C1.71644 15.2335 2.48663 16.0099 3.4373 16.0138L5.99075 16.0241C6.24954 16.0251 6.46034 15.8161 6.46139 15.5572L6.4766 11.7916C6.47835 11.3579 6.83256 11.0066 7.26627 11.0083L8.77236 11.0144C9.20608 11.0161 9.55743 11.3704 9.55568 11.8041L9.54047 15.5697C9.53942 15.8286 9.74841 16.0393 10.0073 16.0403L12.5608 16.0506C13.5114 16.0545 14.2879 15.2843 14.2917 14.3338L14.3111 9.53078L14.5523 9.53175C14.9456 9.53334 15.3161 9.38164 15.5957 9.10444C16.1717 8.53267 16.1757 7.59884 15.6048 7.02207Z" fill="url(#paint0_linear_244_1976)"/>
</g>
<defs>
<linearGradient id="paint0_linear_244_1976" x1="8.06357" y1="0.0323151" x2="7.99894" y2="16.0322" gradientUnits="userSpaceOnUse">
<stop stop-color="#B3B3B3"/>
<stop offset="1" stop-color="#BBBBBB"/>
</linearGradient>
<clipPath id="clip0_244_1976">
<rect width="16" height="16" fill="white" transform="translate(0.0644531) rotate(0.231464)"/>
</clipPath>
</defs>
</svg>
